<svg xmlns="http://www.w3.org/2000/svg" height="800" width="1200" viewBox="-174.43575 -69.25 1511.7765 415.5"><g fill="#AAA" fill-rule="evenodd"><path d="M274 167c-7.778 0-14-6.222-14-14s6.222-14 14-14 14 6.222 14 14c0 7.389-6.222 14-14 14m-69 0c-7.778 0-14-6.222-14-14s6.222-14 14-14 14 6.222 14 14c0 7.389-6.222 14-14 14m102.39 78.581C329.216 229.871 343 206.5 343 180.827 343 133.316 297.052 95 240 95s-103 38.316-103 85.827c0 47.512 45.948 85.828 103 85.828 11.87 0 22.974-1.533 33.695-4.598.766-.383 1.915-.383 3.063-.383 1.915 0 3.83.766 5.361 1.532l22.591 13.028c.766.383 1.149.766 1.915.766a3.433 3.433 0 003.446-3.448c0-.767-.383-1.533-.383-2.683 0-.383-3.063-10.728-4.595-17.242-.383-.766-.383-1.532-.383-2.299-.383-2.682.766-4.597 2.68-5.747"/><path d="M164 86c-8.93 0-16-7.07-16-16s7.07-16 16-16 16 7.07 16 16c0 8.558-7.07 16-16 16m-82 0c-8.93 0-16-7.07-16-16s7.07-16 16-16 16 7.07 16 16c0 8.558-7.07 16-16 16m41.96-86C55.646 0 0 45.895 0 102.88c0 30.98 16.502 58.899 42.983 77.64 1.919 1.53 3.454 3.824 3.454 6.884 0 .764-.384 1.912-.384 2.677-1.919 7.649-5.373 20.27-5.757 20.652-.383 1.148-.767 1.913-.767 3.06 0 2.295 1.919 4.207 4.221 4.207.768 0 1.535-.382 2.303-.765l27.248-15.68c1.919-1.148 4.222-1.913 6.524-1.913 1.152 0 2.303 0 3.454.383 12.665 3.442 26.48 5.736 40.297 5.736h6.908c-2.687-8.031-4.222-16.445-4.222-25.242 0-51.631 50.658-93.701 112.83-93.701H246C237.173 37.48 185.747 0 123.96 0m490.67 48.056h-13.74s-30.26 103.633-31.383 107.6c-4.483 15.838-8.386 29.628-11.357 43.573-2.838-16.462-7.954-36.022-13.389-56.288L519.72 48.576l-.137-.52H507l-27.688 95.612c-6.57 21.392-12.26 40.428-15.135 55.664-2.855-13.433-7.06-30.006-11.507-47.502l-26.6-103.25-.133-.524H412.22l44.797 169.574.137.523h12.33l28.943-97.61c7.231-23.854 11.794-39.97 14.557-54.5 2.41 15.593 6.508 31.996 12.637 54.472l25.428 97.638h12.583l50.728-169.2zm12.126 97.864c2.543-18.933 14.336-40.645 39.515-40.645 10.032 0 18.147 3.07 24.115 9.122 9.844 9.99 11.016 24.889 11 31.523zm41.015-52.06c-32.767 0-54.779 26.43-54.779 65.775 0 36.495 22.823 61.015 56.786 61.015 21.684 0 33.902-5.483 38.144-7.842l.624-.345-5.527-9.566-.578.261c-6.362 2.887-15.039 5.836-31.162 5.836-13.502 0-44.814-5.096-45.122-52.167h88.497l.125-.548c.515-2.326.515-4.129.515-7.41 0-4.511-.631-20.304-8.768-33.986-8.299-13.949-21.335-21.023-38.755-21.023zm462.289-23.773h-13.42v26.526h-20.278v11.16h20.279v75.138c0 13.803 2.514 23.37 7.659 29.214 4.496 5.74 11.785 8.777 21.085 8.777 6.682 0 12.882-1.69 17.52-3.722l-5.09-8.947c-2.964.602-7.12 1.283-11.084 1.283-11.323 0-16.672-8.15-16.672-24.353v-77.39h31.271v-11.16h-31.27zM852.943 202.316c-9.824 4.24-22.748 6.675-35.456 6.675-44.244 0-70.657-27.901-70.657-74.635 0-48.462 27.16-77.389 72.66-77.389 12.25 0 24.015 2.289 33.137 6.447l.573.266 6.042-10.447-.627-.345c-3.25-1.782-15.692-7.58-39.374-7.58-51.637 0-86.332 35.684-86.332 88.799 0 63.88 43.405 86.543 80.572 86.543 25.835 0 41.082-6.3 45.142-8.232l.682-.324-5.789-10.028zm160.208-36.125c8.594-8.349 24.398-12.57 47.016-12.57 1.596 0 3.23.022 4.896.063v25.097c0 1.824-.212 4.515-1.222 7.033-3.865 11.385-15.068 23.551-34.886 23.551-17.23 0-23.342-13.105-23.342-24.324 0-7.647 2.54-13.99 7.538-18.85m65.6 35.743c-.187-3.979-.274-8.278-.274-13.142v-47.05c0-31.402-14.615-48-42.262-48-12.488 0-26.318 4.199-36.179 10.695l4.33 10.098c8.02-5.728 19.345-9.388 30.602-9.388 9.217-.004 16.39 2.393 21.385 7.344 5.863 5.807 8.71 14.721 8.71 27.253v2.542c-.49 0-.977-.004-1.463-.004-28.703 0-49.223 5.91-61.02 17.579-7.219 7.148-10.884 16.29-10.884 27.186 0 16.246 11.27 33.733 36.008 33.733 17.81 0 30.934-9.213 37.754-18.368.415 7.855 3.012 15.614 3.012 15.614l14.528-.02s-3.353-6.83-4.247-16.072M931.566 93.86c-8.885 0-17.408 2.463-24.635 7.103-6.258 3.572-11.914 9.362-15.724 16.046V45.306h-13.419v172.847h13.419v-74.037c0-4.906.228-8.075 1.462-11.78 5.565-15.639 20.226-26.563 35.651-26.563 12.076 0 32.343 5.275 32.343 40.603v71.777h13.418v-73.036c0-48.786-35.413-51.257-42.515-51.257"/></g></svg>